<svg width="14" height="15" viewBox="0 0 14 15" fill="none" xmlns="http://www.w3.org/2000/svg">
<path fill-rule="evenodd" clip-rule="evenodd" d="M9.52965 0.666016C9.80565 0.666016 10.0297 0.890016 10.0297 1.16602L10.03 1.73122C11.0034 1.79796 11.8118 2.13138 12.384 2.70475C13.0087 3.33208 13.3373 4.23408 13.334 5.31608V11.3981C13.334 13.6194 11.9233 14.9994 9.65332 14.9994H4.01465C1.74465 14.9994 0.333984 13.6001 0.333984 11.3474V5.31475C0.333984 3.21954 1.59202 1.87464 3.64378 1.73145L3.64418 1.16602C3.64418 0.890016 3.86818 0.666016 4.14418 0.666016C4.42018 0.666016 4.64418 0.890016 4.64418 1.16602L4.64398 1.71868H9.02932L9.02965 1.16602C9.02965 0.890016 9.25365 0.666016 9.52965 0.666016ZM12.334 6.60202H1.33398V11.3474C1.33398 13.0581 2.28598 13.9994 4.01465 13.9994H9.65332C11.382 13.9994 12.334 13.0754 12.334 11.3981L12.334 6.60202ZM9.80145 10.7969C10.0775 10.7969 10.3015 11.0209 10.3015 11.2969C10.3015 11.5729 10.0775 11.7969 9.80145 11.7969C9.52545 11.7969 9.29878 11.5729 9.29878 11.2969C9.29878 11.0209 9.51945 10.7969 9.79545 10.7969H9.80145ZM6.84312 10.7969C7.11912 10.7969 7.34312 11.0209 7.34312 11.2969C7.34312 11.5729 7.11912 11.7969 6.84312 11.7969C6.56712 11.7969 6.34045 11.5729 6.34045 11.2969C6.34045 11.0209 6.56112 10.7969 6.83712 10.7969H6.84312ZM3.87858 10.7969C4.15458 10.7969 4.37858 11.0209 4.37858 11.2969C4.37858 11.5729 4.15458 11.7969 3.87858 11.7969C3.60258 11.7969 3.37525 11.5729 3.37525 11.2969C3.37525 11.0209 3.59658 10.7969 3.87258 10.7969H3.87858ZM9.80145 8.20575C10.0775 8.20575 10.3015 8.42975 10.3015 8.70575C10.3015 8.98175 10.0775 9.20575 9.80145 9.20575C9.52545 9.20575 9.29878 8.98175 9.29878 8.70575C9.29878 8.42975 9.51945 8.20575 9.79545 8.20575H9.80145ZM6.84312 8.20575C7.11912 8.20575 7.34312 8.42975 7.34312 8.70575C7.34312 8.98175 7.11912 9.20575 6.84312 9.20575C6.56712 9.20575 6.34045 8.98175 6.34045 8.70575C6.34045 8.42975 6.56112 8.20575 6.83712 8.20575H6.84312ZM3.87858 8.20575C4.15458 8.20575 4.37858 8.42975 4.37858 8.70575C4.37858 8.98175 4.15458 9.20575 3.87858 9.20575C3.60258 9.20575 3.37525 8.98175 3.37525 8.70575C3.37525 8.42975 3.59658 8.20575 3.87258 8.20575H3.87858ZM9.02932 2.71868H4.64398L4.64418 3.36002C4.64418 3.63602 4.42018 3.86002 4.14418 3.86002C3.86818 3.86002 3.64418 3.63602 3.64418 3.36002L3.64383 2.73382C2.15034 2.85928 1.33398 3.76459 1.33398 5.31475V5.60202H12.334L12.334 5.31475C12.3367 4.49142 12.1153 3.85142 11.676 3.41142C11.2903 3.02462 10.7266 2.79362 10.0302 2.73414L10.0297 3.36002C10.0297 3.63602 9.80565 3.86002 9.52965 3.86002C9.25365 3.86002 9.02965 3.63602 9.02965 3.36002L9.02932 2.71868Z" fill="#9E9E9E"/>
</svg>
