<svg width="8" height="14" viewBox="0 0 8 14" fill="none" xmlns="http://www.w3.org/2000/svg">
<path d="M3.56791 14V12.7051C2.86159 12.6448 2.2833 12.4819 1.8325 12.2159C1.3817 11.9499 1.03125 11.6387 0.780084 11.2825C0.529457 10.9263 0.348267 10.5747 0.236516 10.229C0.124764 9.88332 0.0461042 9.48372 -0.000549316 9.03197H2.03485C2.0815 9.3431 2.15094 9.60911 2.2437 9.83C2.33647 10.0509 2.48782 10.2565 2.69668 10.447C2.90553 10.638 3.1963 10.7733 3.56791 10.8536V7.72244L3.47026 7.70721C3.09866 7.61697 2.72434 7.50155 2.3484 7.36093C1.97192 7.22031 1.62799 7.03516 1.31714 6.80372C1.00576 6.57286 0.754587 6.27697 0.564718 5.91546C0.374307 5.55395 0.27883 5.10279 0.27883 4.56081C0.27883 3.90868 0.4253 3.34913 0.717698 2.88215C1.01064 2.41575 1.40502 2.04662 1.90248 1.77593C2.3994 1.50523 2.9549 1.33942 3.56791 1.27907V0H4.68271V1.30953C5.28649 1.37984 5.78612 1.53804 6.18105 1.78354C6.57597 2.02963 6.88953 2.31029 7.12171 2.62668C7.3539 2.94308 7.52586 3.25421 7.63761 3.56006C7.74937 3.86649 7.83725 4.2198 7.90235 4.62116H5.89516C5.8485 4.38035 5.78612 4.17234 5.70692 3.99657C5.62771 3.82079 5.50674 3.65029 5.34454 3.48447C5.18179 3.31866 4.961 3.1962 4.68271 3.11593V6.02151L4.8639 6.06663C5.17962 6.1469 5.52139 6.25002 5.88811 6.37541C6.25482 6.50079 6.59876 6.67892 6.91937 6.90977C7.23997 7.14062 7.49982 7.4494 7.7 7.83552C7.89963 8.22223 7.99945 8.7062 7.99945 9.28802C7.99945 9.91027 7.8622 10.4646 7.58825 10.9515C7.31429 11.4384 6.92859 11.8321 6.43113 12.1333C5.93422 12.4344 5.35105 12.6202 4.68217 12.6905V14H3.56736H3.56791ZM2.25781 4.47116C2.25781 4.80221 2.36468 5.06587 2.57842 5.26157C2.79215 5.45727 3.12198 5.62074 3.56791 5.75082V3.04093C3.15887 3.1212 2.83827 3.29171 2.60608 3.55244C2.3739 3.81376 2.25781 4.11961 2.25781 4.47058V4.47116ZM6.00691 9.33372C6.00691 8.96284 5.89299 8.67632 5.66569 8.47594C5.43785 8.27555 5.11019 8.11442 4.68325 7.99431V10.8542C5.08252 10.764 5.40313 10.5835 5.64507 10.3122C5.88648 10.0415 6.00745 9.71516 6.00745 9.33372H6.00691Z" fill="#EB9209"/>
</svg>
