<svg width="24" height="24" viewBox="0 0 24 24" fill="none" xmlns="http://www.w3.org/2000/svg">
<path d="M11.6464 17.6464L9.74267 15.7427C9.6194 15.6194 9.6448 15.4131 9.79427 15.3234C11.1519 14.5088 12.8481 14.5088 14.2057 15.3234C14.3552 15.4131 14.3806 15.6194 14.2573 15.7427L12.3536 17.6464C12.1583 17.8417 11.8417 17.8417 11.6464 17.6464Z" fill="white"/>
<path d="M7.32441 13.3244L8.29382 14.2938C8.41016 14.4102 8.59646 14.4173 8.72138 14.3102C10.608 12.6931 13.392 12.6931 15.2786 14.3102C15.4035 14.4173 15.5898 14.4102 15.7062 14.2938L16.6756 13.3244C16.8519 13.1481 16.8443 12.8599 16.659 12.6931C14.0104 10.3093 9.98964 10.3093 7.34102 12.6931C7.15565 12.8599 7.14807 13.1481 7.32441 13.3244Z" fill="white"/>
<path d="M4.39201 10.392L5.23673 11.2367C5.38734 11.3873 5.62629 11.4029 5.79511 11.273C9.45317 8.4591 14.5468 8.4591 18.2049 11.273C18.3737 11.4029 18.6127 11.3873 18.7633 11.2367L19.608 10.392C19.8176 10.1824 19.7997 9.83726 19.5696 9.65029C15.1608 6.06811 8.83924 6.06811 4.43041 9.65029C4.2003 9.83726 4.18236 10.1824 4.39201 10.392Z" fill="white"/>
</svg>
