<svg width="40" height="39" viewBox="0 0 40 39" fill="none" xmlns="http://www.w3.org/2000/svg">
<g filter="url(#filter0_d_1_50893)">
<path d="M28.4669 21.9095C28.0525 22.3111 27.8622 22.8918 27.9565 23.4613L29.3788 31.3323C29.4987 31.9994 29.2172 32.6745 28.6589 33.0601C28.1117 33.46 27.3838 33.508 26.7871 33.1881L19.7016 29.4925C19.4553 29.3614 19.1817 29.291 18.9017 29.283H18.4682C18.3178 29.3054 18.1706 29.3534 18.0362 29.427L10.9492 33.1401C10.5988 33.316 10.2021 33.3784 9.81331 33.316C8.86624 33.1369 8.23432 32.2346 8.3895 31.2827L9.81331 23.4117C9.9077 22.8374 9.71732 22.2535 9.30298 21.8455L3.52613 16.2463C3.043 15.7775 2.87502 15.0736 3.09579 14.4385C3.31016 13.805 3.85729 13.3427 4.518 13.2387L12.469 12.0852C13.0737 12.0228 13.6048 11.6549 13.8768 11.1109L17.3803 3.92788C17.4635 3.7679 17.5707 3.62072 17.7003 3.49594L17.8443 3.38395C17.9195 3.30076 18.0058 3.23197 18.1018 3.17598L18.2762 3.11199L18.5482 3H19.2217C19.8232 3.06239 20.3527 3.42234 20.6295 3.95987L24.1794 11.1109C24.4354 11.6341 24.9329 11.9972 25.5073 12.0852L33.4582 13.2387C34.1301 13.3347 34.6917 13.7986 34.914 14.4385C35.1236 15.08 34.9428 15.7839 34.4501 16.2463L28.4669 21.9095Z" fill="white"/>
</g>
<defs>
<filter id="filter0_d_1_50893" x="0" y="0" width="40" height="38.3981" filterUnits="userSpaceOnUse" color-interpolation-filters="sRGB">
<feFlood flood-opacity="0" result="BackgroundImageFix"/>
<feColorMatrix in="SourceAlpha" type="matrix" values="0 0 0 0 0 0 0 0 0 0 0 0 0 0 0 0 0 0 127 0" result="hardAlpha"/>
<feOffset dx="1" dy="1"/>
<feGaussianBlur stdDeviation="2"/>
<feComposite in2="hardAlpha" operator="out"/>
<feColorMatrix type="matrix" values="0 0 0 0 0 0 0 0 0 0 0 0 0 0 0 0 0 0 0.2 0"/>
<feBlend mode="normal" in2="BackgroundImageFix" result="effect1_dropShadow_1_50893"/>
<feBlend mode="normal" in="SourceGraphic" in2="effect1_dropShadow_1_50893" result="shape"/>
</filter>
</defs>
</svg>
