<svg width="34" height="40" viewBox="0 0 34 40" fill="none" xmlns="http://www.w3.org/2000/svg">
<g filter="url(#filter0_d_1_50910)">
<path d="M16.9991 27C16.1053 27.0002 15.2441 26.6637 14.5872 26.0575C13.9303 25.4513 13.5258 24.6199 13.4542 23.7289C11.083 22.8896 9.08456 21.2395 7.81162 19.07C6.53868 16.9005 6.07313 14.351 6.49713 11.8716C6.92114 9.39219 8.20744 7.1423 10.129 5.51908C12.0505 3.89585 14.4838 3.00366 16.9991 3C19.6745 2.99961 22.2523 4.0046 24.2215 5.81569C26.1906 7.62678 27.4073 10.1117 27.6303 12.7778C27.6377 12.8934 27.621 13.0093 27.5812 13.1182C27.5414 13.227 27.4794 13.3264 27.3992 13.41C27.3189 13.4936 27.2222 13.5596 27.115 13.6038C27.0079 13.6479 26.8928 13.6694 26.7769 13.6667C26.5389 13.6603 26.3117 13.5659 26.1393 13.4017C25.9669 13.2375 25.8615 13.0152 25.8436 12.7778C25.6853 11.2059 25.1109 9.70468 24.1796 8.42857C23.2482 7.15247 21.9937 6.14763 20.545 5.51749C19.0963 4.88735 17.5058 4.65469 15.9373 4.84346C14.3688 5.03222 12.879 5.6356 11.6212 6.59146C10.3634 7.54733 9.38304 8.82115 8.78109 10.2818C8.17915 11.7424 7.97735 13.3371 8.19648 14.9016C8.41561 16.4661 9.04774 17.944 10.0278 19.1831C11.0079 20.4221 12.3004 21.3776 13.7725 21.9511C14.0403 21.3724 14.4589 20.8763 14.9843 20.5149C15.5098 20.1535 16.1227 19.9401 16.759 19.897C17.3953 19.8539 18.0314 19.9828 18.6008 20.27C19.1702 20.5573 19.6518 20.9924 19.9952 21.5298C20.3386 22.0671 20.5312 22.687 20.5527 23.3243C20.5743 23.9617 20.424 24.5931 20.1177 25.1524C19.8113 25.7118 19.3602 26.1784 18.8115 26.5035C18.2629 26.8285 17.6369 27 16.9991 27ZM8.12624 22.5556H8.28802C9.33788 23.5847 10.5615 24.4201 11.9022 25.0231C12.2964 26.3235 13.1719 27.4243 14.3502 28.101C15.5285 28.7777 16.9206 28.9792 18.2423 28.6643C19.5641 28.3494 20.7158 27.5419 21.4624 26.4066C22.209 25.2713 22.4941 23.8939 22.2596 22.5556H25.888C26.831 22.5556 27.7354 22.9302 28.4022 23.597C29.069 24.2638 29.4436 25.1681 29.4436 26.1111C29.4436 29.1173 27.9627 31.384 25.648 32.8613C23.3689 34.3138 20.2969 35 16.9991 35C13.7014 35 10.6294 34.3138 8.35024 32.8613C6.03558 31.3858 4.55469 29.1156 4.55469 26.1111C4.55469 24.1324 6.16002 22.5556 8.12624 22.5556ZM24.1103 13.6667C24.1111 14.8697 23.8066 16.0532 23.2251 17.1064C22.6437 18.1595 21.8043 19.0478 20.7858 19.688C20.2905 19.1875 19.7007 18.7904 19.0506 18.5197C18.4006 18.249 17.7033 18.1101 16.9991 18.1111C16.295 18.11 15.5976 18.2489 14.9476 18.5196C14.2975 18.7903 13.7077 19.1874 13.2125 19.688C11.8632 18.8375 10.8379 17.5594 10.3005 16.0578C10.0264 15.2904 9.8869 14.4815 9.88802 13.6667C9.88802 11.7807 10.6372 9.97194 11.9708 8.63835C13.3044 7.30476 15.1132 6.55556 16.9991 6.55556C18.8851 6.55556 20.6939 7.30476 22.0275 8.63835C23.361 9.97194 24.1103 11.7807 24.1103 13.6667Z" fill="white"/>
</g>
<defs>
<filter id="filter0_d_1_50910" x="0.554688" y="0" width="32.8889" height="40" filterUnits="userSpaceOnUse" color-interpolation-filters="sRGB">
<feFlood flood-opacity="0" result="BackgroundImageFix"/>
<feColorMatrix in="SourceAlpha" type="matrix" values="0 0 0 0 0 0 0 0 0 0 0 0 0 0 0 0 0 0 127 0" result="hardAlpha"/>
<feOffset dy="1"/>
<feGaussianBlur stdDeviation="2"/>
<feComposite in2="hardAlpha" operator="out"/>
<feColorMatrix type="matrix" values="0 0 0 0 0 0 0 0 0 0 0 0 0 0 0 0 0 0 0.2 0"/>
<feBlend mode="normal" in2="BackgroundImageFix" result="effect1_dropShadow_1_50910"/>
<feBlend mode="normal" in="SourceGraphic" in2="effect1_dropShadow_1_50910" result="shape"/>
</filter>
</defs>
</svg>
