<svg width="40" height="40" viewBox="0 0 40 40" fill="none" xmlns="http://www.w3.org/2000/svg">
<g filter="url(#filter0_d_1_50886)">
<path d="M25.9341 3C31.357 3 35 6.80498 35 12.4668V25.5332C35 31.195 31.357 35 25.9325 35H12.0659C6.64303 35 3 31.195 3 25.5332V12.4668C3 6.80498 6.64303 3 12.0659 3H25.9341ZM27.6985 19.8801C25.9834 18.8101 24.6593 20.3127 24.3021 20.7932C23.9578 21.2572 23.6618 21.769 23.3496 22.2809C22.587 23.5441 21.7134 25.0004 20.201 25.8475C18.0032 27.0644 16.3347 25.9432 15.1345 25.1276C14.684 24.8237 14.2463 24.5364 13.8103 24.3449C12.7356 23.8809 11.7686 24.4093 10.3334 26.2322C9.58047 27.1849 8.83393 28.1294 8.07773 29.0706C7.62563 29.6336 7.73342 30.5022 8.34321 30.8786C9.3166 31.478 10.504 31.8 11.8458 31.8H25.3302C26.0912 31.8 26.8539 31.696 27.5811 31.4582C29.219 30.9232 30.519 29.698 31.198 28.0799C31.7707 26.7193 32.0491 25.0681 31.5133 23.6943C31.3347 23.2386 31.0676 22.8142 30.6928 22.4411C29.7097 21.4652 28.791 20.5538 27.6985 19.8801ZM13.3982 9.4C11.1923 9.4 9.4 11.1948 9.4 13.4C9.4 15.6052 11.1923 17.4 13.3982 17.4C15.6024 17.4 17.3963 15.6052 17.3963 13.4C17.3963 11.1948 15.6024 9.4 13.3982 9.4Z" fill="white"/>
</g>
<defs>
<filter id="filter0_d_1_50886" x="0" y="0" width="40" height="40" filterUnits="userSpaceOnUse" color-interpolation-filters="sRGB">
<feFlood flood-opacity="0" result="BackgroundImageFix"/>
<feColorMatrix in="SourceAlpha" type="matrix" values="0 0 0 0 0 0 0 0 0 0 0 0 0 0 0 0 0 0 127 0" result="hardAlpha"/>
<feOffset dx="1" dy="1"/>
<feGaussianBlur stdDeviation="2"/>
<feComposite in2="hardAlpha" operator="out"/>
<feColorMatrix type="matrix" values="0 0 0 0 0 0 0 0 0 0 0 0 0 0 0 0 0 0 0.12 0"/>
<feBlend mode="normal" in2="BackgroundImageFix" result="effect1_dropShadow_1_50886"/>
<feBlend mode="normal" in="SourceGraphic" in2="effect1_dropShadow_1_50886" result="shape"/>
</filter>
</defs>
</svg>
