<svg width="35" height="40" viewBox="0 0 35 40" fill="none" xmlns="http://www.w3.org/2000/svg">
<g filter="url(#filter0_d_1_50860)">
<path d="M16.5104 3C9.10499 3 3 8.94863 3 16.3084C3 20.0171 4.33887 23.4602 6.54256 26.3785C8.97367 29.5976 11.9701 32.4023 15.3429 34.6039C16.1148 35.1127 16.8115 35.1511 17.6587 34.6039C21.0507 32.4023 24.0472 29.5976 26.4574 26.3785C28.6627 23.4602 30 20.0171 30 16.3084C30 8.94863 23.895 3 16.5104 3ZM16.5104 12.2429C18.9591 12.2429 20.9562 14.2765 20.9562 16.7228C20.9562 19.1883 18.9591 21.1275 16.5104 21.1275C14.0601 21.1275 12.0438 19.1883 12.0438 16.7228C12.0438 14.2765 14.0601 12.2429 16.5104 12.2429Z" fill="white"/>
</g>
<defs>
<filter id="filter0_d_1_50860" x="0" y="0" width="35" height="40" filterUnits="userSpaceOnUse" color-interpolation-filters="sRGB">
<feFlood flood-opacity="0" result="BackgroundImageFix"/>
<feColorMatrix in="SourceAlpha" type="matrix" values="0 0 0 0 0 0 0 0 0 0 0 0 0 0 0 0 0 0 127 0" result="hardAlpha"/>
<feOffset dx="1" dy="1"/>
<feGaussianBlur stdDeviation="2"/>
<feComposite in2="hardAlpha" operator="out"/>
<feColorMatrix type="matrix" values="0 0 0 0 0 0 0 0 0 0 0 0 0 0 0 0 0 0 0.2 0"/>
<feBlend mode="normal" in2="BackgroundImageFix" result="effect1_dropShadow_1_50860"/>
<feBlend mode="normal" in="SourceGraphic" in2="effect1_dropShadow_1_50860" result="shape"/>
</filter>
</defs>
</svg>
