<svg width="48" height="42" viewBox="0 0 48 42" fill="none" xmlns="http://www.w3.org/2000/svg">
<g filter="url(#filter0_d_1_50868)">
<path d="M24.6979 8C25.2178 8 25.6402 8.41038 25.6402 8.91697V12.7652C25.6402 13.3816 26.1663 13.8927 26.8008 13.8927C27.4507 13.8927 27.9613 13.3816 27.9613 12.7652V8.91697C27.9613 8.41038 28.3838 8 28.9052 8H33.9497C37.2921 8 40 10.6307 40 13.8776V17.6658C40 17.9664 39.8762 18.252 39.6596 18.4625C39.4429 18.6729 39.1489 18.7932 38.8395 18.7932C37.6944 18.7932 36.766 19.6951 36.766 20.7925C36.766 21.8974 37.6836 22.7948 38.8178 22.8068C39.4569 22.8128 40 23.2458 40 23.8666V27.7224C40 30.9678 37.2921 33.6 33.9497 33.6H28.9052C28.3838 33.6 27.9613 33.1896 27.9613 32.683V29.4361C27.9613 28.8047 27.4507 28.3086 26.8008 28.3086C26.1663 28.3086 25.6402 28.8047 25.6402 29.4361V32.683C25.6402 33.1896 25.2178 33.6 24.6979 33.6H14.0503C10.7234 33.6 8 30.9693 8 27.7224V23.8666C8 23.2458 8.54313 22.8128 9.18221 22.8068C10.318 22.7948 11.234 21.8974 11.234 20.7925C11.234 19.7252 10.3366 18.9134 9.16054 18.9134C8.85106 18.9134 8.55706 18.7932 8.34043 18.5827C8.12379 18.3723 8 18.0867 8 17.786V13.8927C8 10.6517 10.7296 8 14.0658 8H24.6979ZM26.8008 17.1246C26.1663 17.1246 25.6402 17.6357 25.6402 18.252V24.2649C25.6402 24.8813 26.1663 25.3924 26.8008 25.3924C27.4507 25.3924 27.9613 24.8813 27.9613 24.2649V18.252C27.9613 17.6357 27.4507 17.1246 26.8008 17.1246Z" fill="white"/>
</g>
<defs>
<filter id="filter0_d_1_50868" x="0" y="0" width="48" height="41.6" filterUnits="userSpaceOnUse" color-interpolation-filters="sRGB">
<feFlood flood-opacity="0" result="BackgroundImageFix"/>
<feColorMatrix in="SourceAlpha" type="matrix" values="0 0 0 0 0 0 0 0 0 0 0 0 0 0 0 0 0 0 127 0" result="hardAlpha"/>
<feOffset/>
<feGaussianBlur stdDeviation="4"/>
<feComposite in2="hardAlpha" operator="out"/>
<feColorMatrix type="matrix" values="0 0 0 0 0 0 0 0 0 0 0 0 0 0 0 0 0 0 0.2 0"/>
<feBlend mode="normal" in2="BackgroundImageFix" result="effect1_dropShadow_1_50868"/>
<feBlend mode="normal" in="SourceGraphic" in2="effect1_dropShadow_1_50868" result="shape"/>
</filter>
</defs>
</svg>
