<svg width="40" height="40" viewBox="0 0 40 40" fill="none" xmlns="http://www.w3.org/2000/svg">
<g filter="url(#filter0_d_1_50877)">
<circle cx="19" cy="19" r="16" fill="url(#paint0_linear_1_50877)"/>
<ellipse cx="19" cy="19" rx="13.3333" ry="13.3333" fill="url(#paint1_linear_1_50877)"/>
<g clip-path="url(#clip0_1_50877)">
<path d="M18.4241 28.3333V26.6068C17.4823 26.5264 16.7113 26.3092 16.1102 25.9545C15.5091 25.5998 15.0419 25.185 14.707 24.71C14.3728 24.235 14.1312 23.7663 13.9822 23.3054C13.8332 22.8444 13.7283 22.3116 13.6661 21.7093H16.38C16.4422 22.1241 16.5348 22.4788 16.6585 22.7733C16.7822 23.0679 16.984 23.3421 17.2624 23.596C17.5409 23.8506 17.9286 24.0311 18.4241 24.1381V19.9633L18.2939 19.9429C17.7984 19.8226 17.2993 19.6687 16.7981 19.4812C16.2961 19.2937 15.8375 19.0469 15.4231 18.7383C15.0079 18.4305 14.673 18.036 14.4198 17.5539C14.1659 17.0719 14.0386 16.4704 14.0386 15.7477C14.0386 14.8782 14.2339 14.1322 14.6238 13.5095C15.0144 12.8877 15.5402 12.3955 16.2035 12.0346C16.8661 11.6736 17.6067 11.4526 18.4241 11.3721V9.66667H19.9105V11.4127C20.7155 11.5065 21.3817 11.7174 21.9083 12.0447C22.4348 12.3728 22.8529 12.7471 23.1625 13.1689C23.4721 13.5908 23.7014 14.0056 23.8504 14.4134C23.9994 14.822 24.1165 15.2931 24.2033 15.8282H21.5271C21.4649 15.5071 21.3817 15.2298 21.2761 14.9954C21.1705 14.7611 21.0092 14.5337 20.7929 14.3126C20.5759 14.0915 20.2815 13.9283 19.9105 13.8212V17.6954L20.1521 17.7555C20.573 17.8625 21.0287 18 21.5177 18.1672C22.0066 18.3344 22.4652 18.5719 22.8927 18.8797C23.3202 19.1875 23.6666 19.5992 23.9335 20.114C24.1997 20.6296 24.3328 21.2749 24.3328 22.0507C24.3328 22.8804 24.1498 23.6194 23.7845 24.2686C23.4193 24.9178 22.905 25.4428 22.2417 25.8443C21.5792 26.2459 20.8016 26.4935 19.9098 26.5873V28.3333H18.4234H18.4241ZM16.6773 15.6282C16.6773 16.0696 16.8198 16.4212 17.1048 16.6821C17.3897 16.943 17.8295 17.161 18.4241 17.3344V13.7212C17.8787 13.8283 17.4512 14.0556 17.1416 14.4033C16.8321 14.7517 16.6773 15.1595 16.6773 15.6274V15.6282ZM21.6761 22.1116C21.6761 21.6171 21.5242 21.2351 21.2211 20.9679C20.9173 20.7007 20.4805 20.4859 19.9112 20.3257V24.1389C20.4436 24.0186 20.871 23.778 21.1936 23.4163C21.5155 23.0554 21.6768 22.6202 21.6768 22.1116H21.6761Z" fill="#EB9209"/>
</g>
</g>
<defs>
<filter id="filter0_d_1_50877" x="0" y="0" width="40" height="40" filterUnits="userSpaceOnUse" color-interpolation-filters="sRGB">
<feFlood flood-opacity="0" result="BackgroundImageFix"/>
<feColorMatrix in="SourceAlpha" type="matrix" values="0 0 0 0 0 0 0 0 0 0 0 0 0 0 0 0 0 0 127 0" result="hardAlpha"/>
<feOffset dx="1" dy="1"/>
<feGaussianBlur stdDeviation="2"/>
<feComposite in2="hardAlpha" operator="out"/>
<feColorMatrix type="matrix" values="0 0 0 0 0 0 0 0 0 0 0 0 0 0 0 0 0 0 0.2 0"/>
<feBlend mode="normal" in2="BackgroundImageFix" result="effect1_dropShadow_1_50877"/>
<feBlend mode="normal" in="SourceGraphic" in2="effect1_dropShadow_1_50877" result="shape"/>
</filter>
<linearGradient id="paint0_linear_1_50877" x1="5.81407" y1="8.6" x2="32.6997" y2="14.3648" gradientUnits="userSpaceOnUse">
<stop stop-color="#FFE68E"/>
<stop offset="1" stop-color="#F9AB34"/>
</linearGradient>
<linearGradient id="paint1_linear_1_50877" x1="14.7576" y1="6.27273" x2="29.6226" y2="24.9803" gradientUnits="userSpaceOnUse">
<stop stop-color="#FFE68E"/>
<stop offset="1" stop-color="#F9AB34"/>
</linearGradient>
<clipPath id="clip0_1_50877">
<rect width="10.6667" height="18.6667" fill="white" transform="translate(13.6667 9.66667)"/>
</clipPath>
</defs>
</svg>
