<svg width="48" height="48" viewBox="0 0 48 48" fill="none" xmlns="http://www.w3.org/2000/svg">
<circle cx="24" cy="24" r="23.25" fill="#EE4392" fill-opacity="0.04" stroke="#9A8DE9" stroke-width="1.5"/>
<g clip-path="url(#clip0_299_15022)">
<path d="M26.8125 28.8724C27.2008 28.8724 27.5156 28.5576 27.5156 28.1693C27.5156 27.781 27.2008 27.4662 26.8125 27.4662C26.4242 27.4662 26.1094 27.781 26.1094 28.1693C26.1094 28.5576 26.4242 28.8724 26.8125 28.8724Z" fill="#9A8DE9"/>
<path d="M21.1875 20.4349C21.5758 20.4349 21.8906 20.1201 21.8906 19.7318C21.8906 19.3435 21.5758 19.0287 21.1875 19.0287C20.7992 19.0287 20.4844 19.3435 20.4844 19.7318C20.4844 20.1201 20.7992 20.4349 21.1875 20.4349Z" fill="#9A8DE9"/>
<path d="M34.9026 22.3644C34.1047 21.8425 33.8053 20.724 34.2345 19.8718C34.6101 19.1282 34.6499 18.4896 34.3519 17.974C34.0539 17.4583 33.4812 17.1733 32.649 17.126C31.6966 17.0724 30.8782 16.2539 30.8246 15.3008C30.7772 14.4693 30.4922 13.8966 29.9766 13.5987C29.4609 13.3027 28.8223 13.3412 28.0787 13.7161C27.2265 14.1418 26.1073 13.8459 25.5855 13.048C24.6723 11.6541 23.3278 11.6541 22.4146 13.048C21.8921 13.8452 20.7742 14.1439 19.9214 13.7161C19.1771 13.3412 18.5385 13.3027 18.0235 13.5987C17.5079 13.8966 17.2229 14.4693 17.1755 15.3015C17.1219 16.2539 16.3035 17.0724 15.3504 17.126C14.5189 17.1733 13.9462 17.4583 13.6482 17.974C13.3502 18.4896 13.39 19.1282 13.7656 19.8718C14.1948 20.724 13.8954 21.8425 13.0968 22.365C12.4005 22.8224 12 23.3552 12 23.9505C12 24.5458 12.4005 25.0794 13.0974 25.536C13.8953 26.0585 14.1947 27.1771 13.7655 28.0292C13.3899 28.7728 13.3501 29.4114 13.6481 29.927C13.9461 30.4427 14.5188 30.7277 15.351 30.7751C16.3034 30.8286 17.1218 31.6471 17.1754 32.6002C17.2228 33.4317 17.5078 34.0044 18.0234 34.3024C18.5398 34.5997 19.177 34.5598 19.9213 34.1849C20.7735 33.7565 21.8913 34.0545 22.4145 34.8538C22.8718 35.55 23.4046 35.9974 24 35.9974C24.5953 35.9974 25.1281 35.55 25.5861 34.853C26.1073 34.0538 27.2238 33.753 28.0786 34.1849C28.8223 34.5598 29.4629 34.5997 29.9765 34.3024C30.4922 34.0044 30.7771 33.4317 30.8245 32.5995C30.8781 31.6471 31.6966 30.8286 32.6497 30.7751C33.4812 30.7277 34.0538 30.4427 34.3518 29.927C34.6498 29.4114 34.61 28.7728 34.2344 28.0292C33.8053 27.177 34.1046 26.0585 34.9025 25.536C35.5995 25.0794 36 24.5458 36 23.9505C36 23.3552 35.5995 22.8224 34.9026 22.3644ZM21.1875 17.6224C22.3507 17.6224 23.2969 18.5686 23.2969 19.7318C23.2969 20.8949 22.3507 21.8412 21.1875 21.8412C20.0243 21.8412 19.0781 20.8949 19.0781 19.7318C19.0781 18.5686 20.0243 17.6224 21.1875 17.6224ZM20.3436 29.9971L19.2189 29.1539L27.6564 17.9039L28.7811 18.7471L20.3436 29.9971ZM26.8125 30.2787C25.6493 30.2787 24.7031 29.3324 24.7031 28.1693C24.7031 27.0061 25.6493 26.0599 26.8125 26.0599C27.9757 26.0599 28.9219 27.0061 28.9219 28.1693C28.9219 29.3324 27.9757 30.2787 26.8125 30.2787Z" fill="#9A8DE9"/>
</g>
<defs>
<clipPath id="clip0_299_15022">
<rect width="24" height="24" fill="white" transform="translate(12 12)"/>
</clipPath>
</defs>
</svg>
