<svg width="48" height="48" viewBox="0 0 48 48" fill="none" xmlns="http://www.w3.org/2000/svg">
<circle cx="24" cy="24" r="23.25" fill="#FFCD5A" fill-opacity="0.13" stroke="#FFC350" stroke-width="1.5"/>
<g clip-path="url(#clip0_299_15039)">
<path d="M33.0399 14.3642L15.8402 18.9729L15.9404 19.3468C15.9957 19.5535 15.8733 19.7655 15.6666 19.8208C15.4599 19.8762 15.2479 19.7538 15.1925 19.5471L15.0924 19.1732L11.3533 20.1751C10.9403 20.2858 10.6952 20.7103 10.8058 21.1233L11.6878 24.4149C11.7383 24.6033 11.879 24.7576 12.0659 24.8138C12.9346 25.0751 13.6524 25.7644 13.9045 26.7051C14.1565 27.6457 13.8795 28.6016 13.2578 29.2622C13.1241 29.4043 13.0794 29.6083 13.1299 29.7968L14.0119 33.0883C14.1225 33.5013 14.5471 33.7464 14.96 33.6357L18.6991 32.6339L18.5989 32.26C18.5436 32.0533 18.666 31.8412 18.8727 31.7859C19.0793 31.7305 19.2914 31.8529 19.3467 32.0596L19.4469 32.4335L36.6466 27.8248C37.0596 27.7142 37.3047 27.2896 37.1941 26.8767L33.9881 14.9116C33.8774 14.4986 33.4529 14.2535 33.0399 14.3642ZM18.946 30.564C19.0014 30.7707 18.8789 30.9827 18.6723 31.0381C18.4656 31.0934 18.2536 30.971 18.1982 30.7643L17.9978 30.0165C17.9424 29.8098 18.0649 29.5978 18.2715 29.5424C18.4782 29.4871 18.6903 29.6095 18.7456 29.8162L18.946 30.564ZM18.3449 28.3205C18.4002 28.5272 18.2778 28.7392 18.0711 28.7946C17.8645 28.85 17.6524 28.7275 17.5971 28.5209L17.3967 27.7731C17.3413 27.5664 17.4637 27.3543 17.6704 27.299C17.8771 27.2436 18.0891 27.366 18.1445 27.5727L18.3449 28.3205ZM17.7437 26.0771C17.7991 26.2838 17.6767 26.4958 17.47 26.5512C17.2633 26.6065 17.0513 26.4841 16.9959 26.2774L16.7956 25.5296C16.7402 25.3229 16.8626 25.1109 17.0693 25.0555C17.276 25.0002 17.488 25.1226 17.5434 25.3293L17.7437 26.0771ZM17.1426 23.8337C17.198 24.0403 17.0755 24.2524 16.8689 24.3077C16.6622 24.3631 16.4502 24.2407 16.3948 24.034L16.1944 23.2862C16.139 23.0795 16.2615 22.8675 16.4681 22.8121C16.6748 22.7567 16.8869 22.8792 16.9422 23.0858L17.1426 23.8337ZM16.5415 21.5902C16.5969 21.7969 16.4744 22.0089 16.2678 22.0643C16.0611 22.1197 15.849 21.9972 15.7937 21.7906L15.5933 21.0427C15.5379 20.8361 15.6604 20.624 15.867 20.5687C16.0737 20.5133 16.2857 20.6357 16.3411 20.8424L16.5415 21.5902Z" fill="#FFC350"/>
<path d="M36.0724 27.1773L20.3683 31.3852C20.1618 31.4405 19.9496 31.3179 19.8942 31.1114L16.8886 19.8942C16.8332 19.6877 16.9558 19.4755 17.1623 19.4201L32.8664 15.2122C33.0729 15.1569 33.2851 15.2794 33.3405 15.486L36.3461 26.7032C36.4015 26.9097 36.2789 27.1219 36.0724 27.1773Z" fill="#FFD164"/>
<path d="M27.0003 25.9655L25.3882 27.7015C25.033 28.084 24.3926 27.8383 24.3846 27.3162L24.3483 24.9474L22.1991 23.9507C21.7254 23.7311 21.7613 23.0461 22.2553 22.8772L24.4969 22.1106L24.7807 19.7586C24.8433 19.2403 25.5058 19.0628 25.8191 19.4804L27.2409 21.3754L29.5654 20.9185C30.0777 20.8178 30.4513 21.393 30.1509 21.82L28.788 23.7578L29.9409 25.8274C30.195 26.2835 29.7634 26.8166 29.2644 26.6629L27.0003 25.9655Z" fill="white"/>
<path d="M29.4387 24.9259C26.9762 25.427 24.5201 24.4777 23.0156 22.6173L22.2554 22.8772C21.7613 23.0462 21.7254 23.7311 22.1991 23.9507L24.3483 24.9474L24.3846 27.3162C24.3926 27.8383 25.0329 28.0841 25.3882 27.7015L27.0003 25.9655L29.2643 26.6629C29.7633 26.8166 30.1949 26.2836 29.9408 25.8274L29.4387 24.9259Z" fill="#FFF6D8"/>
</g>
<defs>
<clipPath id="clip0_299_15039">
<rect width="24" height="24" fill="white" transform="translate(9.30304 15.5147) rotate(-15)"/>
</clipPath>
</defs>
</svg>
