<svg width="40" height="37" viewBox="0 0 40 37" fill="none" xmlns="http://www.w3.org/2000/svg">
<path d="M18.553 27.5847L17.8925 29.0714L0 5.51417L5.10987 4.94649L13.2159 15.4383L16.9343 20.2498L19.2998 14.6716L20.4747 11.9024L25.611 11.3312L20.7477 22.5742L19.9516 24.414L19.9551 24.4174L19.7578 24.8605L19.7508 24.8744L19.7455 24.8882L18.5688 27.6072L18.553 27.5847ZM40 0L38.4077 0.18519L38.42 0.155768L35.4238 0.527879L35.408 0.52961L35.3921 0.531341L34.8954 0.588455L34.8937 0.593648L32.8839 0.842876L31.1771 1.05576L10.5474 3.57573L13.6968 7.72781L17.3112 7.25704L23.6241 6.4332L23.6382 6.45051L26.6643 6.05244L32.8539 5.23898L30.3844 10.8743L20.7107 32.9466L23.7844 37L40 0Z" fill="white"/>
</svg>
