<svg width="49" height="48" viewBox="0 0 49 48" fill="none" xmlns="http://www.w3.org/2000/svg">
<circle cx="24.5" cy="24" r="23.25" fill="#01AFFF" fill-opacity="0.06" stroke="#06B1FA" stroke-width="1.5"/>
<g clip-path="url(#clip0_299_15031)">
<path d="M30.8167 23.254C30.6198 22.9193 30.1889 22.8076 29.8541 23.0043C29.5193 23.2012 29.4075 23.632 29.6044 23.9669C29.8014 24.3015 30.2322 24.4133 30.567 24.2166C30.9016 24.0196 31.0134 23.5888 30.8167 23.254Z" fill="url(#paint0_linear_299_15031)"/>
<path d="M23.1166 21.2565C22.9199 20.9217 22.4888 20.8099 22.1542 21.0068C21.8194 21.2037 21.7076 21.6346 21.9045 21.9694C22.1013 22.304 22.5323 22.4158 22.8669 22.219C23.2017 22.0221 23.3135 21.5913 23.1166 21.2565Z" fill="url(#paint1_linear_299_15031)"/>
<path d="M30.1765 13.8424C29.5869 12.8397 28.2916 12.5037 27.2889 13.0933L16.2649 19.5759C15.9299 19.7729 15.8182 20.2034 16.0152 20.5385L17.4409 22.9628C17.6377 23.2978 17.526 23.7283 17.1911 23.9254C16.8561 24.1223 16.4256 24.0106 16.2286 23.6757L14.803 21.2512C14.6059 20.9163 14.1754 20.8046 13.8404 21.0015L12.8696 21.5725C11.8669 22.1621 11.5309 23.4572 12.1206 24.4599L17.8232 34.1575C18.4128 35.1602 19.7079 35.4962 20.7106 34.9066L21.6815 34.3358C22.0166 34.1387 22.1283 33.7082 21.9312 33.3732L20.5056 30.9488C20.3086 30.6138 20.4203 30.1833 20.7553 29.9862C21.0903 29.7894 21.5207 29.901 21.7177 30.2359L23.1433 32.6603C23.3404 32.9953 23.7709 33.107 24.1059 32.91L35.1299 26.4274C36.1326 25.8378 36.4686 24.5425 35.879 23.5398L30.1765 13.8424ZM20.0424 28.7741C19.7073 28.9712 19.2768 28.8595 19.0798 28.5244L17.6542 26.1001C17.4572 25.765 17.5688 25.3345 17.9039 25.1375C18.2389 24.9405 18.6695 25.0521 18.8665 25.3872L20.2921 27.8115C20.4891 28.1466 20.3774 28.5771 20.0424 28.7741ZM23.5798 23.4311C22.5771 24.0208 21.282 23.6848 20.6924 22.6821C20.1028 21.6794 20.4388 20.3843 21.4414 19.7947C22.4441 19.2051 23.7392 19.5411 24.3288 20.5438C24.9185 21.5464 24.5825 22.8415 23.5798 23.4311ZM26.035 28.3759C25.647 28.354 25.3508 28.0223 25.3727 27.6344L25.9446 17.5099C25.9648 17.1228 26.296 16.826 26.6862 16.8474C27.0744 16.8694 27.3705 17.201 27.3486 17.5892L26.7768 27.7135C26.7554 28.0956 26.429 28.397 26.035 28.3759ZM31.28 25.4287C30.2773 26.0183 28.982 25.6823 28.3924 24.6796C27.8029 23.6769 28.1389 22.3819 29.1414 21.7922C30.1441 21.2026 31.4394 21.5386 32.029 22.5413C32.6186 23.544 32.2826 24.839 31.28 25.4287Z" fill="url(#paint2_linear_299_15031)"/>
</g>
<defs>
<linearGradient id="paint0_linear_299_15031" x1="29.5987" y1="23.1684" x2="30.9592" y2="23.6534" gradientUnits="userSpaceOnUse">
<stop stop-color="#00BAFF"/>
<stop offset="1" stop-color="#063EF9"/>
</linearGradient>
<linearGradient id="paint1_linear_299_15031" x1="21.8988" y1="21.1709" x2="23.2593" y2="21.6558" gradientUnits="userSpaceOnUse">
<stop stop-color="#00BAFF"/>
<stop offset="1" stop-color="#063EF9"/>
</linearGradient>
<linearGradient id="paint2_linear_299_15031" x1="13.5594" y1="16.4567" x2="36.7775" y2="24.7329" gradientUnits="userSpaceOnUse">
<stop stop-color="#00BAFF"/>
<stop offset="1" stop-color="#063EF9"/>
</linearGradient>
<clipPath id="clip0_299_15031">
<rect width="24" height="24" fill="white" transform="translate(15.3975 9.37122) rotate(14.5427)"/>
</clipPath>
</defs>
</svg>
