<svg width="19" height="20" viewBox="0 0 19 20" fill="none" xmlns="http://www.w3.org/2000/svg">
<path d="M13.1497 2.25524e-06C13.5742 -0.000994979 13.9099 0.32884 13.9109 0.76862L13.9119 1.51824C16.6665 1.73414 18.4862 3.6112 18.4891 6.48975L18.5 14.9155C18.5039 18.054 16.5322 19.985 13.3718 19.99L5.65189 20C2.5112 20.004 0.514823 18.027 0.510874 14.8796L0.500007 6.55272C0.496064 3.65517 2.25153 1.78311 5.00618 1.53024L5.00519 0.780614C5.0042 0.340834 5.33002 0.00999951 5.76445 0.00999951C6.19887 0.00900002 6.52469 0.338835 6.52568 0.778615L6.52666 1.47826L12.3914 1.47027L12.3904 0.770619C12.3894 0.330839 12.7152 0.00100402 13.1497 2.25524e-06ZM13.5525 14.1919H13.5426C13.0884 14.2029 12.7241 14.5837 12.734 15.0435C12.735 15.5032 13.1013 15.882 13.5555 15.892C14.0185 15.891 14.3937 15.5102 14.3927 15.0405C14.3927 14.5707 14.0165 14.1919 13.5525 14.1919ZM5.41691 14.1929C4.96274 14.2129 4.6073 14.5937 4.60828 15.0535C4.62902 15.5132 5.0042 15.8731 5.45837 15.8521C5.90366 15.8321 6.25811 15.4513 6.23738 14.9915C6.2275 14.5417 5.8612 14.1919 5.41691 14.1929ZM9.4847 14.1879C9.03053 14.2089 8.67608 14.5887 8.67608 15.0485C8.69681 15.5082 9.07199 15.8671 9.52617 15.8471C9.97046 15.8261 10.3259 15.4463 10.3052 14.9855C10.2953 14.5367 9.929 14.1869 9.4847 14.1879ZM5.41197 10.5947C4.9578 10.6147 4.60335 10.9955 4.60433 11.4553C4.62408 11.915 5.00025 12.2749 5.45442 12.2539C5.89872 12.2339 6.25317 11.8531 6.23244 11.3933C6.22257 10.9435 5.85725 10.5937 5.41197 10.5947ZM9.48075 10.5597C9.02658 10.5797 8.67114 10.9605 8.67212 11.4203C8.69187 11.8801 9.06804 12.2389 9.52222 12.2189C9.96651 12.1979 10.321 11.8181 10.3012 11.3583C10.2904 10.9085 9.92505 10.5587 9.48075 10.5597ZM13.5485 10.5647C13.0944 10.5747 12.7389 10.9445 12.7399 11.4043V11.4153C12.7498 11.8751 13.125 12.2239 13.5801 12.2139C14.0244 12.2029 14.3789 11.8221 14.369 11.3623C14.3483 10.9225 13.9918 10.5637 13.5485 10.5647ZM12.3934 3.0095L6.52864 3.01749L6.52962 3.82609C6.52962 4.25687 6.20479 4.5967 5.77037 4.5967C5.33595 4.5977 5.00914 4.25887 5.00914 3.82809L5.00815 3.05847C3.08286 3.25138 2.01754 4.38281 2.02049 6.55072L2.02149 6.86157L16.9696 6.84158V6.49175C16.9272 4.34283 15.849 3.21539 13.9138 3.04748L13.9148 3.81709C13.9148 4.24688 13.5801 4.58771 13.1556 4.58771C12.7212 4.58871 12.3944 4.24888 12.3944 3.81909L12.3934 3.0095Z" fill="white"/>
</svg>
