<svg width="12" height="14" viewBox="0 0 12 14" fill="none" xmlns="http://www.w3.org/2000/svg">
<path d="M5.99561 0.333344C9.10406 0.333344 11.6666 2.81194 11.6666 5.87851C11.6666 7.4238 11.1047 8.85843 10.1796 10.0744C9.15918 11.4157 7.90142 12.5843 6.48567 13.5016C6.16165 13.7136 5.86923 13.7296 5.51361 13.5016C4.0898 12.5843 2.83204 11.4157 1.82031 10.0744C0.894635 8.85843 0.333313 7.4238 0.333313 5.87851C0.333313 2.81194 2.8959 0.333344 5.99561 0.333344ZM5.99561 4.18456C4.96775 4.18456 4.12947 5.03187 4.12947 6.05118C4.12947 7.07848 4.96775 7.88646 5.99561 7.88646C7.02414 7.88646 7.87049 7.07848 7.87049 6.05118C7.87049 5.03187 7.02414 4.18456 5.99561 4.18456Z" fill="#333333"/>
</svg>
