<svg width="14" height="14" viewBox="0 0 14 14" fill="none" xmlns="http://www.w3.org/2000/svg">
<path d="M10.9457 8.54673C10.773 8.71407 10.6937 8.95607 10.733 9.1934L11.3257 12.4734C11.3757 12.7514 11.2584 13.0327 11.0257 13.1934C10.7977 13.3601 10.4944 13.3801 10.2457 13.2467L7.29305 11.7067C7.19038 11.6521 7.07638 11.6227 6.95971 11.6194H6.77905C6.71638 11.6287 6.65505 11.6487 6.59905 11.6794L3.64571 13.2267C3.49971 13.3001 3.33438 13.3261 3.17238 13.3001C2.77771 13.2254 2.51438 12.8494 2.57905 12.4527L3.17238 9.17273C3.21171 8.9334 3.13238 8.69007 2.95971 8.52007L0.55238 6.18673C0.351047 5.9914 0.281047 5.69807 0.373047 5.4334C0.46238 5.1694 0.69038 4.97673 0.965714 4.9334L4.27905 4.45273C4.53105 4.42673 4.75238 4.2734 4.86571 4.04673L6.32571 1.0534C6.36038 0.986733 6.40505 0.925399 6.45905 0.873399L6.51905 0.826733C6.55038 0.792066 6.58638 0.763399 6.62638 0.740066L6.69905 0.713399L6.81238 0.666733H7.09305C7.34371 0.692733 7.56438 0.842733 7.67971 1.06673L9.15905 4.04673C9.26571 4.26473 9.47305 4.41607 9.71238 4.45273L13.0257 4.9334C13.3057 4.9734 13.5397 5.16673 13.6324 5.4334C13.7197 5.70073 13.6444 5.99407 13.439 6.18673L10.9457 8.54673Z" fill="#FFB450"/>
</svg>
