<svg width="24" height="20" viewBox="0 0 24 20" fill="none" xmlns="http://www.w3.org/2000/svg">
<path d="M0.343439 3.0557C1.07125 1.36079 2.38245 0.352295 4.26479 0.0574693C4.52543 0.0165843 4.79407 0.00977019 5.05894 0.00931591C8.15792 0.00613597 11.2574 0.0288498 14.3563 0.000230372C16.752 -0.0220292 18.8295 1.57112 19.3047 3.78345C19.3852 4.15732 19.4205 4.54618 19.4256 4.92868C19.4412 6.03939 19.4313 7.1501 19.4313 8.2608V8.5688C19.8279 8.5688 20.2104 8.54336 20.5877 8.57335C22.2517 8.70599 23.681 9.97116 23.9788 11.5584C23.9953 11.647 23.9934 11.7392 23.9939 11.8296C23.9948 12.774 23.9769 13.7189 23.9991 14.6629C24.023 15.6928 23.5888 16.5236 22.8511 17.2201C22.0937 17.9355 21.1617 18.2644 20.1069 18.2458C19.8429 18.2408 19.6759 18.319 19.5249 18.5238C19.276 18.8623 19.0074 19.1884 18.7265 19.5023C18.5628 19.6859 18.3586 19.8353 18.1723 20.0002H17.7969C17.6106 19.8358 17.4045 19.6877 17.2422 19.5037C16.9274 19.1476 16.6334 18.775 16.3408 18.4016C16.25 18.2853 16.1498 18.249 16.0039 18.249C15.2295 18.2494 14.4542 18.2613 13.6807 18.2308C11.9508 18.1627 10.4425 16.8653 10.1485 15.2176C10.1221 15.07 10.1042 14.921 10.076 14.7302C9.97345 14.8537 9.88736 14.955 9.80361 15.0577C9.39149 15.5615 8.98218 16.0671 8.56816 16.5691C8.20967 17.0034 7.71709 17.0075 7.36094 16.5763C6.83872 15.9449 6.32027 15.3107 5.80793 14.672C5.71619 14.558 5.62162 14.513 5.47342 14.518C4.68727 14.543 3.911 14.4962 3.17189 14.1996C1.42222 13.4977 0.386723 12.243 0.0517483 10.445C0.0395164 10.38 0.0174046 10.3169 -3.8147e-06 10.2528V4.26816C0.111967 3.86295 0.178305 3.43956 0.343439 3.0557ZM12.6415 16.5187C13.0517 16.778 13.5057 16.8866 13.9978 16.8812C14.8038 16.8716 15.6097 16.8834 16.4156 16.8762C16.7473 16.8734 17.0004 16.9875 17.1998 17.2464C17.4454 17.5667 17.7094 17.8738 17.9846 18.2095C18.2485 17.8865 18.5082 17.5871 18.7458 17.2723C18.9585 16.9902 19.228 16.8648 19.5879 16.8753C19.9154 16.8843 20.2504 16.9016 20.5712 16.8494C21.7055 16.6654 22.534 15.849 22.6069 14.7352C22.669 13.7889 22.6545 12.8304 22.5782 11.8846C22.495 10.8475 21.4675 9.98024 20.3868 9.92845C20.153 9.9171 19.9163 9.933 19.6834 9.91255C19.4675 9.89347 19.4026 9.97343 19.3894 10.1742C19.3287 11.0719 19.0013 11.8814 18.4386 12.5914C17.4158 13.8807 16.0533 14.5217 14.369 14.5207C13.5081 14.5203 12.6471 14.5207 11.7866 14.5207H11.4959C11.5302 15.4011 11.9094 16.0567 12.6415 16.5187ZM1.41046 9.70631C1.42222 11.3817 2.55135 12.7422 4.24315 13.0743C4.74937 13.1738 5.28571 13.1547 5.80746 13.1497C6.19465 13.1461 6.47599 13.2628 6.70934 13.5668C7.10454 14.0824 7.5289 14.5771 7.96079 15.1049C8.40021 14.5671 8.83257 14.0506 9.24987 13.5227C9.4517 13.2665 9.69682 13.1516 10.0318 13.1534C11.4949 13.1615 12.9586 13.1597 14.4217 13.1561C16.1178 13.1525 17.4944 12.1158 17.9037 10.5245C17.9691 10.271 17.9982 10.0025 17.9987 9.74129C18.0029 8.01095 18.0166 6.28061 17.9846 4.55072C17.9559 3.01345 16.5807 1.5952 14.9962 1.41258C14.7407 1.38305 14.4815 1.36806 14.2241 1.3676C11.1642 1.36488 8.10475 1.36352 5.04483 1.3667C3.44194 1.36851 2.11475 2.25117 1.61511 3.67942C1.48762 4.04466 1.42175 4.44669 1.41705 4.83328C1.3954 6.45732 1.3987 8.08182 1.41046 9.70631Z" fill="white"/>
<path d="M4.72631 5.64378C4.73525 6.0281 5.03682 6.30657 5.46118 6.30748C6.87682 6.3102 8.29199 6.30839 9.70763 6.30839C11.1233 6.30839 12.554 6.31157 13.9771 6.30657C14.5163 6.30475 14.8546 5.7996 14.6287 5.34396C14.4942 5.0723 14.2599 4.94783 13.9484 4.94874C13.1115 4.95055 12.275 4.94919 11.438 4.94919C9.45169 4.94919 7.46585 4.94828 5.47953 4.9501C5.03258 4.95055 4.71737 5.24492 4.72631 5.64378Z" fill="white"/>
<path d="M4.72725 8.92502C4.74419 9.30798 5.04294 9.57373 5.47624 9.57464C6.08267 9.576 6.68958 9.576 7.29601 9.576C8.10475 9.576 8.91395 9.57555 9.72221 9.57509C10.0798 9.57509 10.4369 9.57555 10.7944 9.576C11.2856 9.576 11.7763 9.57646 12.2674 9.57646C12.8344 9.57646 13.4013 9.57555 13.9687 9.57328C14.5229 9.571 14.8602 9.06085 14.6212 8.5984C14.4815 8.32765 14.2429 8.21317 13.9334 8.21362C12.6979 8.21544 11.4625 8.21453 10.227 8.21453C8.64719 8.21453 7.06783 8.21317 5.488 8.21544C5.02741 8.2159 4.70985 8.51663 4.72725 8.92502Z" fill="white"/>
</svg>
