<svg width="40" height="40" viewBox="0 0 40 40" fill="none" xmlns="http://www.w3.org/2000/svg">
<path d="M35.073 6.84598H4.927C4.1717 6.84598 3.55948 6.23376 3.55948 5.47846V1.36752C3.55948 0.612222 4.1717 0 4.927 0H35.073C35.8283 0 36.4405 0.612222 36.4405 1.36752V5.47846C36.4405 6.23376 35.8283 6.84598 35.073 6.84598Z" fill="#725EE9"/>
<path d="M32.4786 3.41797H7.52164V37.7278L10.3576 40.0004L13.6307 37.7278L16.8154 40.0004L20.0001 37.7278L23.1848 40.0004L26.3695 37.7278L29.6426 40.0004L32.4786 37.7278V3.41797Z" fill="#E3DEFF"/>
<path d="M27.8457 24.9426H26.7518C26.5157 24.9426 26.3244 24.7513 26.3244 24.5152C26.3244 24.2792 26.5157 24.0879 26.7518 24.0879H27.8457C28.0818 24.0879 28.2731 24.2792 28.2731 24.5152C28.2731 24.7513 28.0818 24.9426 27.8457 24.9426Z" fill="#9A8DE9"/>
<path d="M23.8304 24.9426H11.9326C11.6966 24.9426 11.5053 24.7513 11.5053 24.5152C11.5053 24.2792 11.6966 24.0879 11.9326 24.0879H23.8304C24.0665 24.0879 24.2578 24.2792 24.2578 24.5152C24.2578 24.7513 24.0665 24.9426 23.8304 24.9426Z" fill="#9A8DE9"/>
<path d="M27.8457 29.1752H11.9326C11.6966 29.1752 11.5053 28.9839 11.5053 28.7478C11.5053 28.5117 11.6966 28.3205 11.9326 28.3205H27.8457C28.0818 28.3205 28.2731 28.5117 28.2731 28.7478C28.2731 28.9839 28.0818 29.1752 27.8457 29.1752Z" fill="#9A8DE9"/>
<path d="M27.8457 33.4076H26.7518C26.5157 33.4076 26.3244 33.2164 26.3244 32.9803C26.3244 32.7442 26.5157 32.5529 26.7518 32.5529H27.8457C28.0818 32.5529 28.2731 32.7442 28.2731 32.9803C28.2731 33.2164 28.0818 33.4076 27.8457 33.4076Z" fill="#9A8DE9"/>
<path d="M23.8304 33.4076H11.9326C11.6966 33.4076 11.5053 33.2164 11.5053 32.9803C11.5053 32.7442 11.6966 32.5529 11.9326 32.5529H23.8304C24.0665 32.5529 24.2578 32.7442 24.2578 32.9803C24.2578 33.2164 24.0665 33.4076 23.8304 33.4076Z" fill="#9A8DE9"/>
<path d="M11.9326 7.2666H19.3324V12.1575H11.9326V7.2666Z" fill="#9A8DE9"/>
<path d="M28.0675 8.06271H22.9837C22.7476 8.06271 22.5564 7.87143 22.5564 7.63536C22.5564 7.39929 22.7476 7.20801 22.9837 7.20801H28.0675C28.3035 7.20801 28.4948 7.39929 28.4948 7.63536C28.4948 7.87143 28.3035 8.06271 28.0675 8.06271Z" fill="#9A8DE9"/>
<path d="M28.0675 12.2151H22.9837C22.7476 12.2151 22.5564 12.0238 22.5564 11.7877C22.5564 11.5516 22.7476 11.3604 22.9837 11.3604H28.0675C28.3035 11.3604 28.4948 11.5516 28.4948 11.7877C28.4948 12.0238 28.3035 12.2151 28.0675 12.2151Z" fill="#9A8DE9"/>
<path d="M26.5739 17.4639V16.0681C26.856 16.1259 27.1245 16.2503 27.3555 16.4311C27.4134 16.4718 27.4811 16.4938 27.552 16.4948C27.7721 16.4948 27.9531 16.3115 27.9555 16.0859C27.9559 15.9867 27.9187 15.8932 27.8478 15.8197C27.4905 15.5062 27.0383 15.3145 26.5699 15.2772V14.8227C26.5699 14.6535 26.4358 14.5158 26.2776 14.5158C26.1073 14.4999 25.9525 14.6486 25.9533 14.8227V15.2607C25.0304 15.3453 24.3899 15.9514 24.3899 16.7468C24.3899 17.6987 25.1252 17.9933 25.9533 18.2251V19.8263C25.5774 19.7645 25.2266 19.6003 24.9346 19.3489C24.8683 19.2948 24.7847 19.2639 24.6948 19.2621C24.4792 19.2774 24.3126 19.4629 24.3154 19.6836C24.3149 19.7827 24.352 19.8763 24.4221 19.949C24.8458 20.3397 25.3894 20.5697 25.9574 20.5995V21.0188C25.9555 21.1892 26.1091 21.3383 26.2739 21.3262C26.4394 21.3262 26.5739 21.1884 26.5739 21.0188V20.5896C27.7408 20.4922 28.158 19.7176 28.158 19.0185C28.158 18.0042 27.347 17.6807 26.5739 17.4639ZM27.3057 19.1117C27.3057 19.4083 27.1121 19.7487 26.5739 19.8354V18.414C27.0183 18.5502 27.3093 18.7268 27.3057 19.1117ZM25.9573 16.0336V17.3001C25.5525 17.175 25.2503 17.0416 25.2503 16.696C25.2503 16.3407 25.526 16.0847 25.9573 16.0336Z" fill="#9A8DE9"/>
<path d="M21.0177 20.6919H11.9326C11.6966 20.6919 11.5053 20.5006 11.5053 20.2645C11.5053 20.0285 11.6966 19.8372 11.9326 19.8372H21.0177C21.2537 19.8372 21.445 20.0285 21.445 20.2645C21.445 20.5006 21.2537 20.6919 21.0177 20.6919Z" fill="#9A8DE9"/>
<path d="M21.0177 16.4534H11.9326C11.6966 16.4534 11.5053 16.2621 11.5053 16.0261C11.5053 15.79 11.6966 15.5987 11.9326 15.5987H21.0177C21.2537 15.5987 21.445 15.79 21.445 16.0261C21.445 16.2621 21.2537 16.4534 21.0177 16.4534Z" fill="#9A8DE9"/>
<path d="M33.2097 32.8452C36.4406 32.8452 39.0598 30.2308 39.0598 27.0057C39.0598 23.7805 36.4406 21.1661 33.2097 21.1661C29.9788 21.1661 27.3596 23.7805 27.3596 27.0057C27.3596 30.2308 29.9788 32.8452 33.2097 32.8452Z" fill="#FFB450"/>
<path d="M31.8692 29.2206L30.5837 28.1745C30.4006 28.0256 30.373 27.7564 30.522 27.5733C30.671 27.3903 30.9402 27.3626 31.1232 27.5116L32.095 28.3024L35.2499 24.8342C35.4087 24.6595 35.6791 24.6469 35.8535 24.8056C36.0281 24.9643 36.0409 25.2348 35.8821 25.4092L32.455 29.1767C32.371 29.269 32.0684 29.3399 31.8692 29.2206Z" fill="white"/>
<path d="M6.79024 32.8452C10.0212 32.8452 12.6403 30.2308 12.6403 27.0057C12.6403 23.7805 10.0212 21.1661 6.79024 21.1661C3.55933 21.1661 0.940155 23.7805 0.940155 27.0057C0.940155 30.2308 3.55933 32.8452 6.79024 32.8452Z" fill="#9A8DE9"/>
<path d="M7.12742 26.5487V25.153C7.40947 25.2108 7.67802 25.3352 7.90896 25.516C7.96691 25.5567 8.0346 25.5786 8.10554 25.5797C8.32562 25.5797 8.50656 25.3963 8.50896 25.1708C8.50938 25.0715 8.4722 24.978 8.40126 24.9045C8.044 24.5911 7.59178 24.3994 7.1234 24.3621V23.9076C7.1234 23.7384 6.9893 23.6007 6.83109 23.6007C6.66084 23.5848 6.50596 23.7334 6.50682 23.9076V24.3456C5.58391 24.4302 4.9434 25.0362 4.9434 25.8316C4.9434 26.7836 5.6787 27.0783 6.50682 27.31V28.9112C6.13092 28.8494 5.78007 28.6852 5.4881 28.4338C5.42178 28.3797 5.33819 28.3488 5.24827 28.3469C5.03272 28.3623 4.86605 28.5478 4.86887 28.7685C4.86844 28.8676 4.90554 28.9612 4.97562 29.0339C5.3993 29.4246 5.94289 29.6546 6.51092 29.6844V30.1037C6.50896 30.274 6.66263 30.4232 6.82742 30.411C6.99289 30.411 7.12742 30.2732 7.12742 30.1037V29.6744C8.29434 29.5772 8.71152 28.8025 8.71152 28.1033C8.71161 27.0891 7.90058 26.7656 7.12742 26.5487ZM7.8593 28.1966C7.8593 28.4932 7.66571 28.8336 7.1275 28.9203V27.4989C7.57186 27.635 7.86289 27.8116 7.8593 28.1966ZM6.51092 25.1185V26.385C6.10605 26.2599 5.80391 26.1265 5.80391 25.7809C5.80391 25.4256 6.07955 25.1696 6.51092 25.1185Z" fill="white"/>
</svg>
