<svg width="24" height="24" viewBox="0 0 24 24" fill="none" xmlns="http://www.w3.org/2000/svg">
<circle cx="12" cy="12" r="12" fill="url(#paint0_linear_299_14660)"/>
<circle cx="12" cy="12" r="10" fill="url(#paint1_linear_299_14660)"/>
<path d="M15.9836 6.375H7.58787C7.12498 6.375 6.75 6.78741 6.75 7.2965V16.7614C6.75 17.2379 7.10103 17.6243 7.53461 17.6243H12.0885C12.5807 17.6243 12.98 17.1856 12.98 16.6439V15.6635H8.53287V8.33583H15.9836C16.4758 8.33583 16.875 7.89709 16.875 7.35541C16.875 6.81374 16.4761 6.375 15.9836 6.375ZM16.8741 11.7858H11.8569C11.6108 11.7858 11.3881 11.8957 11.2267 12.0731C11.0711 12.2443 10.9727 12.4783 10.9661 12.7378C10.9516 13.2927 11.3669 13.747 11.8717 13.747H15.0912L15.0921 16.7156C15.1079 16.9582 15.2037 17.1762 15.3508 17.338C15.5065 17.5092 15.7192 17.6174 15.9552 17.6247C15.9637 17.6247 15.9722 17.625 15.9807 17.625C16.4736 17.625 16.8725 17.1741 16.8725 16.6286V13.0878L16.875 13.0868V11.7872L16.8741 11.7858Z" fill="#EB9209"/>
<defs>
<linearGradient id="paint0_linear_299_14660" x1="2.11056" y1="4.2" x2="22.2748" y2="8.52357" gradientUnits="userSpaceOnUse">
<stop stop-color="#FFE68E"/>
<stop offset="1" stop-color="#F9AB34"/>
</linearGradient>
<linearGradient id="paint1_linear_299_14660" x1="8.81818" y1="2.45455" x2="19.9669" y2="16.4852" gradientUnits="userSpaceOnUse">
<stop stop-color="#FFE68E"/>
<stop offset="1" stop-color="#F9AB34"/>
</linearGradient>
</defs>
</svg>
