<svg width="40" height="40" viewBox="0 0 40 40" fill="none" xmlns="http://www.w3.org/2000/svg">
<g clip-path="url(#clip0_299_14673)">
<path d="M35.7922 14.7168C35.7821 14.3934 35.7688 14.0715 35.7524 13.6879V13.6871C35.6844 12.1574 35.454 10.9598 35.0063 9.8082C34.5868 8.69805 33.9485 7.71836 33.1102 6.89727C32.293 6.06836 31.2891 5.41523 30.211 5.00898C29.5204 4.7418 28.8172 4.55273 28.0415 4.42852C27.8032 4.39023 27.5579 4.3582 27.304 4.33242C26.9938 4.30039 26.6704 4.27695 26.3305 4.26211C24.6946 4.18398 24.1516 4.16602 20.0165 4.16602C15.9118 4.16602 15.3649 4.1832 13.7102 4.25586C12.1813 4.32305 10.9836 4.55352 9.83208 5.00117C8.72114 5.42148 7.74224 6.05977 6.92114 6.89883C6.09302 7.71523 5.43989 8.71992 5.03364 9.79805C4.58364 10.9621 4.35317 12.1598 4.28677 13.6793C4.26802 14.0652 4.25317 14.391 4.24146 14.7168C4.20083 15.7723 4.19067 16.8355 4.19067 19.9949C4.19067 23.1441 4.20083 24.1996 4.23833 25.2676C4.24927 25.5918 4.26333 25.9176 4.28052 26.3027C4.34771 27.8324 4.57817 29.0301 5.02661 30.1816C5.44224 31.2832 6.07974 32.2621 6.92192 33.0926C7.73911 33.9215 8.74302 34.5754 9.82192 34.9809C10.9852 35.4309 12.1821 35.6613 13.704 35.7285C14.8875 35.7809 15.5032 35.8043 17.275 35.8129L19.6812 35.0332L22.075 35.816C24.3813 35.809 24.9946 35.7871 26.3165 35.7285C26.6079 35.716 26.8875 35.6973 27.1571 35.6723C27.2907 35.6598 27.4211 35.6457 27.5493 35.6301C28.525 35.5113 29.3727 35.302 30.1993 34.9809C32.3961 34.1316 34.1438 32.384 34.993 30.1855C35.443 29.0215 35.6735 27.8238 35.7407 26.3027C35.7571 25.9176 35.7711 25.5918 35.7829 25.2676C35.8196 24.1996 35.8297 23.1441 35.8297 19.9949C35.8297 16.8223 35.8258 15.7645 35.7922 14.7168Z" fill="#067EFD"/>
<path d="M35.8297 19.9953C35.8297 23.1445 35.8195 24.2 35.7828 25.268C35.7711 25.5922 35.757 25.918 35.7406 26.3031C35.6735 27.8242 35.443 29.0219 34.993 30.1859C34.1438 32.3844 32.3961 34.132 30.1992 34.9812C29.3727 35.3023 28.525 35.5117 27.5492 35.6305C27.4211 35.6461 27.2906 35.6601 27.157 35.6726C27.5609 35.568 27.95 35.4422 28.3344 35.293C30.5883 34.4219 32.3813 32.6289 33.2524 30.3734C33.7141 29.1789 33.9508 27.95 34.0195 26.389C34.0367 25.9937 34.0508 25.6601 34.0625 25.3273C34.1008 24.2312 34.111 23.1484 34.111 19.9172C34.111 16.6617 34.107 15.5765 34.0727 14.5015C34.0617 14.1703 34.0485 13.8398 34.0313 13.4461V13.4453C33.9617 11.8758 33.7258 10.6469 33.2664 9.46561C32.836 8.32655 32.1805 7.32108 31.3203 6.47889C30.482 5.62811 29.4524 4.9578 28.3461 4.54139C28.2445 4.50233 28.143 4.46483 28.0414 4.42889C28.8172 4.55311 29.5203 4.74218 30.211 5.00936C31.2891 5.41561 32.293 6.06874 33.1102 6.89764C33.9485 7.71874 34.5867 8.69843 35.0063 9.80858C35.4539 10.9601 35.6844 12.1578 35.7524 13.6875V13.6883C35.7688 14.0719 35.782 14.3937 35.7922 14.7172C35.8258 15.7648 35.8297 16.8226 35.8297 19.9953Z" fill="#00C2F3"/>
<path d="M40 32.851V38.2098C40 39.1969 39.1961 40.0004 38.2094 40.0004H26.8003C25.8128 40.0004 25.0096 39.1968 25.0096 38.2098V29.1775C25.0096 28.9549 25.1362 28.7519 25.3354 28.6528C25.5346 28.5536 25.7729 28.577 25.9503 28.7114L29.0424 31.0612H38.2094C39.1961 31.0611 40 31.8639 40 32.851Z" fill="#9A8DE9"/>
<path d="M36.5921 36.4139H28.7842C28.4606 36.4139 28.1982 36.6762 28.1982 36.9996C28.1982 37.3231 28.4605 37.5853 28.7842 37.5853H36.5921C36.9158 37.5853 37.1781 37.3231 37.1781 36.9996C37.1781 36.6762 36.9157 36.4139 36.5921 36.4139Z" fill="white"/>
<path d="M28.7842 34.9302H35.8115C36.1351 34.9302 36.3975 34.6679 36.3975 34.3445C36.3975 34.0211 36.1352 33.7588 35.8115 33.7588H28.7842C28.4606 33.7588 28.1982 34.0211 28.1982 34.3445C28.1982 34.668 28.4606 34.9302 28.7842 34.9302Z" fill="white"/>
<path d="M40 32.8514V38.2101C40 39.1972 39.1961 40.0007 38.2094 40.0007H36.6469C37.6336 40.0007 38.4375 39.1971 38.4375 38.2101V32.8514C38.4375 31.8643 37.6336 31.0615 36.6469 31.0615H38.2094C39.1961 31.0614 40 31.8643 40 32.8514Z" fill="black" fill-opacity="0.13"/>
<path d="M15.581 1.94766V9.4125C15.581 10.487 14.7076 11.3602 13.6326 11.3602H11.5569L10.303 13.1657C10.1936 13.3234 10.0139 13.418 9.82172 13.418C9.62953 13.418 9.44984 13.3234 9.34047 13.1657L8.08734 11.3602H1.94844C0.874219 11.3602 0 10.487 0 9.4125V1.94766C0 0.873828 0.874219 0 1.94844 0H13.6327C14.7076 0 15.581 0.873828 15.581 1.94766Z" fill="#9A8DE9"/>
<path d="M10.3123 3.75047C10.3122 3.75039 10.3122 3.75047 10.3123 3.75047C9.62972 3.0682 8.51847 3.06883 7.83526 3.75188L7.79058 3.79656L7.74581 3.7518C7.41495 3.42102 6.97511 3.23867 6.50737 3.23828H6.50605C6.03862 3.23828 5.59925 3.42016 5.26894 3.75039C4.93823 4.08094 4.75628 4.52063 4.75659 4.98828C4.75698 5.45586 4.9394 5.89547 5.27034 6.22625L7.5144 8.46938C7.59065 8.54563 7.69065 8.58375 7.79058 8.58375C7.8905 8.58375 7.99058 8.54563 8.06675 8.46938L10.3108 6.22617C10.9941 5.54336 10.9947 4.43273 10.3123 3.75047Z" fill="white"/>
<path d="M15.581 1.94766V9.4125C15.581 10.487 14.7076 11.3602 13.6326 11.3602H12.0701C13.1451 11.3602 14.0185 10.4871 14.0185 9.4125V1.94766C14.0185 0.873906 13.1451 0 12.0701 0H13.6326C14.7076 0 15.581 0.873828 15.581 1.94766Z" fill="black" fill-opacity="0.17"/>
<path d="M26.1774 19.425L24.8383 22.7734C24.779 22.9219 24.6352 23.0195 24.4751 23.0195H22.0751V35.8164C21.5032 35.818 20.8274 35.8187 20.0102 35.8187C18.8493 35.8187 17.9727 35.8172 17.2751 35.8133V23.0195H14.2055C13.9899 23.0195 13.8149 22.8445 13.8149 22.6289V19.2797C13.8149 19.0641 13.9899 18.8891 14.2055 18.8891H17.2751V15.8195C17.2751 13.3875 19.2532 11.4094 21.6844 11.4094H25.1454C25.361 11.4094 25.536 11.5844 25.536 11.8V15.1492C25.536 15.3648 25.361 15.5398 25.1454 15.5398H23.0243C22.9633 15.5398 22.904 15.5398 22.8454 15.5391C22.5587 15.5367 22.2016 15.5344 22.118 15.6172C22.0915 15.6437 22.0751 15.7187 22.0751 15.8195V18.8891H25.8149C25.9446 18.8891 26.0657 18.9531 26.1383 19.0609C26.211 19.168 26.2259 19.3047 26.1774 19.425Z" fill="white"/>
</g>
<defs>
<clipPath id="clip0_299_14673">
<rect width="40" height="40" fill="white"/>
</clipPath>
</defs>
</svg>
