<svg width="40" height="40" viewBox="0 0 40 40" fill="none" xmlns="http://www.w3.org/2000/svg">
<g clip-path="url(#clip0_299_14725)">
<path d="M33.7444 19.1629H5.81422C4.72453 19.1629 3.84109 20.0462 3.84109 21.1359V37.5855L34.1021 38.0181L33.7444 19.1629Z" fill="#FFC433"/>
<path d="M9.62923 37.5855H3.84119V38.0269C3.84119 39.1166 4.72455 40.0001 5.81431 40.0001H6.54947L9.62923 37.5855Z" fill="#FFB322"/>
<path d="M34.1858 19.1629H33.7444V35.6124C33.7444 36.7021 32.861 37.5855 31.7713 37.5855H30.6703L33.4506 40H34.1858C35.2755 40 36.1589 39.1166 36.1589 38.0269V21.136C36.1588 20.0463 35.2755 19.1629 34.1858 19.1629Z" fill="#FFB322"/>
<path d="M6.54938 40L18.5194 27.6248C19.329 26.7877 20.671 26.7877 21.4806 27.6248L33.4506 40L20 39.1952L6.54938 40Z" fill="#FFE270"/>
<path d="M8.88485 37.5856L6.54938 40H33.4506L31.1152 37.5856H8.88485Z" fill="#FFD250"/>
<path d="M6.54938 4.00019L6.54938 19.163L18.5194 31.5382C19.329 32.3752 20.671 32.3752 21.4806 31.5382L33.4506 19.163V4.00019C33.4506 3.30566 32.8876 2.74262 32.1931 2.74262H7.80696C7.11242 2.74262 6.54938 3.30566 6.54938 4.00019Z" fill="#9A8DE9"/>
<path d="M32.1931 2.74297H29.7786C30.4731 2.74297 31.0362 3.50555 31.0362 4.44617V21.6591L33.4506 19.1629V4.00055C33.4506 3.30602 32.8876 2.74297 32.1931 2.74297Z" fill="black" fill-opacity="0.13"/>
<path d="M23.8966 12.9998C22.4234 12.9998 21.1079 13.6732 20.2398 14.7286C20.1154 14.8798 19.8847 14.8798 19.7603 14.7286C18.8922 13.6732 17.5767 12.9998 16.1035 12.9998C13.489 12.9998 11.3694 15.1193 11.3694 17.7339C11.3694 20.3493 13.5469 21.8581 15.4642 23.2164C16.8217 24.1781 18.215 25.0928 19.6283 25.9712C19.855 26.1121 20.1415 26.1123 20.3687 25.9723C21.7581 25.1166 26.6173 22.0695 27.5491 20.7458C28.1599 19.878 28.6306 18.878 28.6306 17.7339C28.6306 15.1193 26.5111 12.9998 23.8966 12.9998Z" fill="white"/>
<path d="M15.6196 7.20727H11.3695C11.0361 7.20727 10.7659 6.93703 10.7659 6.60367C10.7659 6.27031 11.0361 6.00008 11.3695 6.00008H15.6196C15.9531 6.00008 16.2232 6.27031 16.2232 6.60367C16.2232 6.93703 15.9531 7.20727 15.6196 7.20727Z" fill="white"/>
<path d="M28.6307 10.3049H11.3695C11.0361 10.3049 10.7659 10.0347 10.7659 9.70133C10.7659 9.36797 11.0361 9.09773 11.3695 9.09773H28.6307C28.9641 9.09773 29.2343 9.36797 29.2343 9.70133C29.2343 10.0347 28.964 10.3049 28.6307 10.3049Z" fill="white"/>
</g>
<defs>
<clipPath id="clip0_299_14725">
<rect width="40" height="40" fill="white"/>
</clipPath>
</defs>
</svg>
