<svg width="40" height="40" viewBox="0 0 40 40" fill="none" xmlns="http://www.w3.org/2000/svg">
<g clip-path="url(#clip0_299_14712)">
<path d="M39.5937 31.4817C39.4526 32.7685 38.4103 33.7739 37.1186 33.8644C37.0117 33.872 36.9056 33.8795 36.7994 33.8863C36.0119 33.9398 35.3995 34.5938 35.3995 35.3834V38.3681C35.3995 39.3722 34.2503 39.942 33.4517 39.3338C31.9943 38.2237 30.0554 36.5724 28.8658 34.8602C28.5843 34.4547 28.1193 34.2184 27.6255 34.2212C23.9627 34.2397 20.3 34.1219 16.6373 33.8644C15.6161 33.7931 14.749 33.1514 14.3628 32.2488C14.2601 32.0118 14.1915 31.7556 14.1621 31.4879C13.6197 26.5328 13.6197 21.577 14.1621 16.6212C14.3032 15.3356 15.3462 14.335 16.6358 14.2446C22.0923 13.8617 27.548 13.7851 33.0038 14.0145C34.3749 14.0713 35.7468 14.148 37.1179 14.2446C38.4082 14.335 39.4519 15.3356 39.593 16.6212C40.1355 21.5749 40.1355 26.5279 39.5937 31.4817Z" fill="#FFB450"/>
<path d="M15.5594 16.4849C15.0038 21.5585 15.0038 26.6327 15.5594 31.7052C15.5894 31.9799 15.6597 32.2417 15.7648 32.4847C16.0335 33.1131 16.5299 33.6179 17.1488 33.8994C16.9783 33.8883 16.8077 33.8767 16.6371 33.8645C15.6159 33.7933 14.7487 33.1517 14.3627 32.2487C14.2598 32.0116 14.1911 31.7555 14.162 31.4877C13.6192 26.533 13.6192 21.577 14.162 16.6212C14.303 15.3359 15.3459 14.3352 16.6355 14.2449C16.8873 14.2275 17.1392 14.2101 17.3916 14.1942C16.4095 14.5321 15.6771 15.4119 15.5594 16.4849Z" fill="#66B49D" fill-opacity="0.46"/>
<path d="M23.8715 29.6318C23.873 30.4394 24.9332 31.0932 25.7408 31.0932H31.9912C32.6411 31.0932 33.1679 30.5664 33.1679 29.9161C33.1679 29.5912 33.0366 29.2966 32.8236 29.0837C32.6107 28.8708 32.3161 28.739 31.9912 28.739H32.4137C33.0636 28.739 33.5908 28.2125 33.5908 27.5619C33.5908 27.2366 33.4595 26.9428 33.2458 26.7295C33.0332 26.5165 32.739 26.3852 32.4136 26.3852H32.8365C33.4784 26.3852 34.0004 25.8708 34.0129 25.2316C34.0261 24.5711 33.4704 24.031 32.8099 24.031H32.4136C33.0634 24.031 33.5907 23.5041 33.5907 22.8535C33.5907 22.5282 33.4594 22.2343 33.2456 22.0211C33.033 21.8081 32.7388 21.6768 32.4135 21.6768H29.1029C29.0982 21.6693 29.0967 21.6671 29.092 21.6596L30.383 18.9095C30.7494 18.1298 30.4138 17.2009 29.6341 16.8346C29.4201 16.734 29.1946 16.6866 28.9725 16.6866C28.3864 16.6866 27.825 17.0184 27.5593 17.5839L27.0073 18.76C26.6812 19.4543 26.159 20.0411 25.4976 20.429C25.0611 20.6849 24.6975 21.0751 24.4754 21.5746C24.3239 21.9155 24.256 22.2746 24.2624 22.6272L23.8715 29.6318Z" fill="#FFDDCE"/>
<path d="M30.1168 17.1871C30.0636 17.1814 30.0105 17.1788 29.9573 17.1788C29.3712 17.1788 28.8098 17.5106 28.5441 18.0761L27.9922 19.2521C27.6661 19.9464 27.1438 20.5333 26.4825 20.9212C26.0459 21.1771 24.4755 21.5745 24.4175 24.5494C24.4129 24.7818 24.329 24.9962 24.2676 25.2103L24.2626 22.6271C24.2561 22.2745 24.3241 21.9154 24.4756 21.5746C24.6976 21.075 25.0613 20.6848 25.4979 20.4289C26.1591 20.041 26.6815 19.4542 27.0076 18.7599L27.5595 17.5839C27.8252 17.0182 28.3866 16.6865 28.9727 16.6865C29.1947 16.6865 29.4203 16.7339 29.6343 16.8346C29.8222 16.9226 29.9843 17.0437 30.1168 17.1871Z" fill="#FFCBBE"/>
<path d="M33.1679 29.9161C33.1679 30.5664 32.6411 31.0932 31.9912 31.0932H25.5776C24.8988 31.0932 24.2695 30.7653 23.88 30.2262H31.9911C32.488 30.2262 32.9128 29.9184 33.0855 29.4826C33.0859 29.483 33.0859 29.4838 33.0867 29.4841C33.0867 29.4841 33.0863 29.4845 33.0867 29.4845C33.1391 29.6182 33.1679 29.7639 33.1679 29.9161Z" fill="#FFCBBE"/>
<path d="M33.5077 27.1279C33.5608 27.2621 33.5903 27.4084 33.5903 27.5614C33.5903 28.2119 33.0635 28.7387 32.4134 28.7387H31.9624C31.723 28.7387 31.5289 28.5446 31.5289 28.3052C31.5289 28.0657 31.723 27.8717 31.9624 27.8717H32.4134C32.9105 27.8718 33.3351 27.5637 33.5077 27.1279Z" fill="#FFCBBE"/>
<path d="M33.9306 24.7742C33.9837 24.9084 34.0132 25.0546 34.0132 25.2076C34.0132 25.8582 33.4865 26.385 32.8364 26.385H32.3854C32.1459 26.385 31.9518 26.1909 31.9518 25.9514C31.9518 25.712 32.1459 25.5179 32.3854 25.5179H32.8364C33.3333 25.5179 33.758 25.2099 33.9306 24.7742Z" fill="#FFCBBE"/>
<path d="M33.5083 22.42C33.5614 22.5542 33.5909 22.7004 33.5909 22.8534C33.5909 23.5039 33.0641 24.0307 32.414 24.0307H31.963C31.7236 24.0307 31.5295 23.8367 31.5295 23.5972C31.5295 23.3578 31.7236 23.1637 31.963 23.1637H32.414C32.911 23.1638 33.3357 22.8557 33.5083 22.42Z" fill="#FFCBBE"/>
<path d="M20.6016 22.6269V29.9673C20.6016 30.4764 21.0143 30.8891 21.5234 30.8891H23.3409C23.85 30.8891 24.2627 30.4764 24.2627 29.9673V22.6269C24.2627 22.1178 23.85 21.7051 23.3409 21.7051H21.5234C21.0143 21.7051 20.6016 22.1177 20.6016 22.6269Z" fill="#F1F4F6"/>
<path d="M20.6013 27.6555V29.9678C20.6013 30.4769 21.0143 30.8894 21.5233 30.8894H23.3408C23.8499 30.8894 24.2624 30.4769 24.2624 29.9678V27.6555C24.2624 28.1646 23.8499 28.5776 23.3408 28.5776H21.5233C21.0143 28.5775 20.6013 28.1646 20.6013 27.6555Z" fill="#D0E2E7"/>
<path d="M0.39093 17.337C0.526555 18.5744 1.5289 19.5412 2.77101 19.6281C2.87374 19.6354 2.97585 19.6426 3.07788 19.6492C3.83523 19.7006 4.42398 20.3295 4.42398 21.0888V23.9588C4.42398 24.9243 5.52906 25.4722 6.29695 24.8874C7.69835 23.8199 9.56273 22.2321 10.7067 20.5857C10.9774 20.1959 11.4245 19.9686 11.8994 19.9713C15.4214 19.9891 18.9434 19.8758 22.4654 19.6281C23.4473 19.5596 24.281 18.9426 24.6525 18.0745C24.7512 17.8467 24.8171 17.6004 24.8455 17.3429C25.367 12.5782 25.367 7.81283 24.8455 3.04744C24.7098 1.81134 23.7068 0.849154 22.4667 0.762201C17.2198 0.394154 11.9737 0.320404 6.72757 0.540951C5.40913 0.595639 4.08999 0.669388 2.77156 0.762201C1.53085 0.849154 0.527258 1.81134 0.391555 3.04751C-0.130007 7.81087 -0.130007 12.5736 0.39093 17.337Z" fill="#9A8DE9"/>
<path d="M1.73506 2.9165C1.20092 7.79517 1.20092 12.6743 1.73506 17.552C1.76404 17.816 1.83154 18.0678 1.93256 18.3014C2.191 18.9056 2.66834 19.3911 3.26342 19.6617C3.09943 19.6511 2.93537 19.6399 2.77139 19.6282C1.78936 19.5597 0.955605 18.9427 0.584434 18.0745C0.485449 17.8465 0.419434 17.6002 0.391465 17.3427C-0.130488 12.5784 -0.130488 7.8129 0.391465 3.04743C0.527012 1.8115 1.5299 0.849309 2.7699 0.762434C3.01209 0.745715 3.25436 0.728918 3.49701 0.713684C2.55256 1.03876 1.84826 1.8847 1.73506 2.9165Z" fill="#BC30C3" fill-opacity="0.26"/>
<path d="M16.8509 9.82955C17.5917 9.82955 18.1943 8.82822 18.1943 7.59736C18.1943 6.3665 17.5917 5.36517 16.8509 5.36517C16.1102 5.36517 15.5077 6.3665 15.5077 7.59736C15.5077 8.82822 16.1102 9.82955 16.8509 9.82955Z" fill="white"/>
<path d="M8.38585 9.82955C9.12663 9.82955 9.72921 8.82822 9.72921 7.59736C9.72921 6.3665 9.12663 5.36517 8.38585 5.36517C7.64515 5.36517 7.04257 6.3665 7.04257 7.59736C7.04257 8.82822 7.64515 9.82955 8.38585 9.82955Z" fill="white"/>
<path d="M17.2452 11.4704C16.9377 11.3411 16.584 11.4849 16.4544 11.7921C15.8022 13.3393 14.2964 14.339 12.6183 14.339C10.9402 14.339 9.43444 13.3393 8.78218 11.7921C8.65272 11.4849 8.29851 11.3411 7.9914 11.4704C7.68421 11.5999 7.54015 11.9539 7.66968 12.2611C8.51108 14.2567 10.4535 15.5463 12.6183 15.5463C14.783 15.5463 16.7254 14.2567 17.5668 12.2611C17.6965 11.9539 17.5524 11.5999 17.2452 11.4704Z" fill="white"/>
</g>
<defs>
<clipPath id="clip0_299_14712">
<rect width="40" height="40" fill="white"/>
</clipPath>
</defs>
</svg>
