<svg width="40" height="40" viewBox="0 0 40 40" fill="none" xmlns="http://www.w3.org/2000/svg">
<g clip-path="url(#clip0_299_14699)">
<path d="M4.6665 15.0687V12.5512C4.6665 12.198 4.80666 11.8592 5.05619 11.6092L6.27588 10.3874C6.52596 10.1369 6.86549 9.99609 7.21955 9.99609H32.7803C33.1343 9.99609 33.4738 10.1369 33.7239 10.3874L34.9435 11.6092C35.1931 11.8592 35.3332 12.198 35.3332 12.5512V15.0687L4.6665 15.0687Z" fill="#D1C9FF"/>
<path d="M4.6665 18.667H35.3331V37.7361H4.6665V18.667Z" fill="#D1C9FF"/>
<path d="M19.9999 34.6666H30.3901C30.7583 34.6666 31.0568 34.3682 31.0568 34V24.6666C31.0568 24.2984 30.7583 24 30.3901 24H19.9999C19.6317 24 19.3333 24.2984 19.3333 24.6666V34C19.3333 34.3682 19.6317 34.6666 19.9999 34.6666Z" fill="#D6A1FE" fill-opacity="0.17"/>
<path d="M16.6665 33.9155V24.7303C16.6665 24.3679 16.3087 24.0742 15.8673 24.0742H8.20642C7.76501 24.0742 7.40723 24.3679 7.40723 24.7303V33.9155L13.0018 35.5557L16.6665 33.9155Z" fill="#6F5BE5"/>
<path d="M7.33325 34.0001H16.6666V37.7359H7.33325V34.0001Z" fill="#6F5BE5"/>
<path d="M14.0738 37.4077H9.99976V27.1347C9.99976 26.8765 10.1517 26.667 10.3393 26.667H13.7343C13.9218 26.667 14.0738 26.8764 14.0738 27.1347V37.4077H14.0738Z" fill="#9A8DE9"/>
<path d="M0.666641 37.333H39.3333C39.7015 37.333 39.9999 37.6314 39.9999 37.9996V39.333C39.9999 39.7012 39.7015 39.9996 39.3333 39.9996H0.666641C0.298438 39.9996 0 39.7012 0 39.333V37.9996C0 37.6314 0.298438 37.333 0.666641 37.333Z" fill="#9A8DE9"/>
<path d="M32 24H30.1489C30.5171 24 30.8156 24.2984 30.8156 24.6666V34C30.8156 34.3682 30.5171 34.6666 30.1489 34.6666H32C32.3682 34.6666 32.6667 34.3682 32.6667 34V24.6666C32.6667 24.2985 32.3682 24 32 24Z" fill="#9A8DE9"/>
<path d="M30 6.40242H26V2.00085C26 1.74835 26.1427 1.51749 26.3685 1.4046L29.0352 0.0712444C29.4784 -0.150396 30 0.171948 30 0.667494V6.40242Z" fill="#9A8DE9"/>
<path d="M20.989 10.0637V9.33328C21.6273 8.37984 22 7.23359 22 6C22 2.68625 19.3138 0 16 0C12.6863 0 10 2.68625 10 6C10 7.23359 10.3727 8.37984 11.011 9.33336V10.0637L20.989 10.0637Z" fill="#9A8DE9"/>
<path d="M28.3097 12H25.9999C25.6317 12 25.3333 11.7015 25.3333 11.3334V6.66664C25.3333 6.29844 25.6317 6 25.9999 6H28.3097C28.6779 6 28.9763 6.29844 28.9763 6.66664V11.3333C28.9763 11.7015 28.6779 12 28.3097 12Z" fill="#9A8DE9"/>
<path d="M16.0001 9.19527L17.6056 8.25605L18.5979 5.29668L16.0992 2.79785H15.0746C13.6841 3.1991 12.6667 4.48027 12.6667 5.99996C12.6667 7.51965 13.6841 8.80082 15.0746 9.20207L16.0001 9.19527Z" fill="white"/>
<path d="M20.4706 9.33301H9.99989C9.63169 9.33301 9.33325 9.63152 9.33325 9.99965V10.6663C9.33325 11.4027 9.9302 11.9996 10.6666 11.9996H19.804C20.5404 11.9996 21.1374 11.4027 21.1374 10.6663V9.99965C21.1373 9.63145 20.8388 9.33301 20.4706 9.33301Z" fill="#9A8DE9"/>
<path d="M30 6H28.1489C28.5171 6 28.8156 6.29844 28.8156 6.66664V11.3333C28.8156 11.7015 28.5171 11.9999 28.1489 11.9999H30C30.3682 11.9999 30.6667 11.7014 30.6667 11.3333V6.66664C30.6667 6.29844 30.3682 6 30 6Z" fill="#D6A1FE" fill-opacity="0.17"/>
<path d="M16 2.66699C15.6787 2.66699 15.3684 2.7134 15.0745 2.79824C16.4649 3.19949 17.4823 4.48074 17.4823 6.00035C17.4823 7.51996 16.4649 8.80121 15.0745 9.20246C15.3684 9.28731 15.6787 9.33363 16 9.33363C17.8409 9.33363 19.3334 7.84121 19.3334 6.00027C19.3334 4.15934 17.8409 2.66699 16 2.66699Z" fill="white"/>
<path d="M22 9.33301H20.1489C20.5171 9.33301 20.8155 9.63152 20.8155 9.99965V10.6663C20.8155 11.4027 20.2186 11.9996 19.4822 11.9996H21.3333C22.0697 11.9996 22.6666 11.4027 22.6666 10.6663V9.99965C22.6666 9.63145 22.3682 9.33301 22 9.33301Z" fill="#9A8DE9"/>
<path d="M25.3335 9.27074H30.6668V8.06348H25.3335V9.27074Z" fill="#D6A1FE" fill-opacity="0.17"/>
<path d="M37.3335 17.3334L20.0001 16L2.66675 17.3334V19.3334C2.66675 19.7016 2.96519 20 3.33339 20H36.6668C37.035 20 37.3334 19.7016 37.3334 19.3334V17.3334H37.3335Z" fill="#9A8DE9"/>
<path fill-rule="evenodd" clip-rule="evenodd" d="M4.6665 14.666L2.6665 17.3327H35.4821L35.4819 17.3324L35.4822 17.3327H37.3334L35.3334 14.666H33.4822L33.4825 14.6664L33.482 14.666H4.6665Z" fill="#6F5BE5"/>
</g>
<defs>
<clipPath id="clip0_299_14699">
<rect width="40" height="40" fill="white"/>
</clipPath>
</defs>
</svg>
