<svg width="17" height="20" viewBox="0 0 17 20" fill="none" xmlns="http://www.w3.org/2000/svg">
<path fill-rule="evenodd" clip-rule="evenodd" d="M10.303 3.33301C10.303 1.49301 11.803 9.60172e-06 13.651 9.60172e-06C14.0897 -0.00104223 14.5244 0.0843342 14.9302 0.251264C15.3359 0.418194 15.7048 0.663408 16.0158 0.972906C16.3268 1.2824 16.5738 1.65012 16.7426 2.05507C16.9115 2.46002 16.999 2.89426 17 3.33301C17 5.17401 15.5 6.66701 13.651 6.66701C13.2076 6.66756 12.7685 6.57996 12.3592 6.40932C11.95 6.23868 11.5787 5.98839 11.267 5.67301L6.632 8.82901C6.76108 9.47201 6.69778 10.1388 6.45 10.746L11.532 14.086C12.1306 13.5978 12.8796 13.3318 13.652 13.333C14.0907 13.3321 14.5254 13.4176 14.9311 13.5846C15.3368 13.7517 15.7056 13.997 16.0165 14.3066C16.3274 14.6162 16.5743 14.984 16.743 15.389C16.9118 15.794 16.9991 16.2283 17 16.667C17 18.507 15.5 20 13.651 20C12.7651 20.0019 11.9147 19.6518 11.2869 19.0268C10.659 18.4017 10.3051 17.5529 10.303 16.667C10.3022 16.1996 10.4007 15.7374 10.592 15.311L5.55 12C4.93941 12.5309 4.15712 12.8226 3.348 12.821C2.90922 12.8221 2.47453 12.7366 2.06877 12.5696C1.66301 12.4026 1.29413 12.1573 0.983212 11.8477C0.672295 11.5381 0.425431 11.1702 0.256728 10.7652C0.0880245 10.3601 0.000786975 9.92579 0 9.48701C0.000918172 9.04831 0.0882526 8.61409 0.257015 8.20915C0.425777 7.80421 0.67266 7.43648 0.983564 7.12697C1.29447 6.81746 1.6633 6.57223 2.069 6.40528C2.47469 6.23834 2.9093 6.15296 3.348 6.15401C4.412 6.15401 5.358 6.64701 5.971 7.41501L10.464 4.35601C10.3571 4.02554 10.3028 3.68034 10.303 3.33301Z" fill="white"/>
</svg>
