<svg width="16" height="17" viewBox="0 0 16 17" fill="none" xmlns="http://www.w3.org/2000/svg">
<path d="M5.66665 12.9067H5.33331C2.66665 12.9067 1.33331 12.24 1.33331 8.9067V5.57336C1.33331 2.9067 2.66665 1.57336 5.33331 1.57336H10.6666C13.3333 1.57336 14.6666 2.9067 14.6666 5.57336V8.9067C14.6666 11.5734 13.3333 12.9067 10.6666 12.9067H10.3333C10.1266 12.9067 9.92665 13.0067 9.79998 13.1734L8.79998 14.5067C8.35998 15.0934 7.63998 15.0934 7.19998 14.5067L6.19998 13.1734C6.09331 13.0267 5.84665 12.9067 5.66665 12.9067Z" stroke="#8492A6" stroke-width="1.3" stroke-miterlimit="10" stroke-linecap="round" stroke-linejoin="round"/>
<path d="M10.6643 7.57335H10.6703" stroke="#8492A6" stroke-width="1.5" stroke-linecap="round" stroke-linejoin="round"/>
<path d="M7.99697 7.57335H8.00296" stroke="#8492A6" stroke-width="1.5" stroke-linecap="round" stroke-linejoin="round"/>
<path d="M5.32967 7.57335H5.33566" stroke="#8492A6" stroke-width="1.5" stroke-linecap="round" stroke-linejoin="round"/>
</svg>
